<svg fill="none" height="219" viewBox="0 0 1024 219" width="1024" xmlns="http://www.w3.org/2000/svg"><g fill="#000"><path d="m412.129 61.8538h-22.596v105.4272h22.596z"/><path d="m480.645 142.595-28.751-80.7412h-24.266l38.918 105.4272h27.379l38.917-105.4272h-23.858z"/><path d="m570.936 61.8538h-22.594v105.4272h22.594z"/><path d="m715.792 140.206c-8.339 0-14.39 5.966-14.39 14.184 0 8.219 6.051 14.184 14.39 14.184 8.455 0 14.592-5.965 14.592-14.184 0-8.218-6.137-14.184-14.592-14.184z"/><path d="m904.23 104.692c-.123-24.354-19.968-44.13-44.35-44.13-13.117 0-24.917 5.728-33.045 14.8083-8.128-9.0802-19.929-14.8083-33.045-14.8083-24.382 0-44.227 19.776-44.35 44.13h-.006v.226.226 62.199h22.622v-62.199-.226c0-11.9843 9.749-21.7338 21.734-21.7338s21.734 9.7495 21.734 21.7338v.226 62.199h22.622v-62.199-.226c0-11.9843 9.75-21.7338 21.734-21.7338 11.985 0 21.734 9.7495 21.734 21.7338v.226h.001v62.199h22.621v-62.199-.226-.226z"/><path d="m999.107 133.166c-3.435 10.602-12.967 16.892-25.828 16.892-17.079 0-28.513-11.516-29.126-29.332v-1.211h79.197l.03-.195c.41-2.814.62-5.735.62-8.452-.61-30.56-20.84-50.3065-51.541-50.3065-31.075 0-51.954 21.7863-51.954 54.2125 0 32.682 21.199 53.8 54.007 53.8 12.516 0 23.665-3.646 32.238-10.544 7.85-6.315 13.03-14.9 15.11-24.864zm-26.442-54.2946c15.585 0 25.985 8.9567 27.865 23.9746h-55.529c1.667-14.1294 13.008-23.9746 27.664-23.9746z"/><path d="m665.486 130.791c-3.077 11.547-12.192 18.407-24.658 18.407-17.524 0-29.299-13.835-29.299-34.425 0-20.8359 11.775-34.835 29.299-34.835 12.818 0 21.584 6.5319 24.851 18.4062h23.696c-4.838-23.9779-22.297-37.7204-48.137-37.7204-15.641 0-28.928 5.1458-38.425 14.8814-9.481 9.7193-14.493 23.2976-14.493 39.2678 0 16.138 4.905 29.698 14.185 39.216 9.265 9.5 22.446 14.523 38.118 14.523 26.038 0 44.154-14.087 48.759-37.721z"/><path d="m347.22 130.791c-3.078 11.547-12.193 18.407-24.659 18.407-17.525 0-29.299-13.835-29.299-34.425 0-20.8359 11.774-34.835 29.299-34.835 12.819 0 21.585 6.5319 24.851 18.4062h23.695c-4.838-23.9779-22.296-37.7204-48.136-37.7204-15.641 0-28.928 5.1458-38.425 14.8814-9.482 9.7193-14.494 23.2976-14.494 39.2678 0 16.138 4.906 29.698 14.186 39.216 9.264 9.5 22.445 14.523 38.118 14.523 26.039 0 44.155-14.087 48.758-37.721z"/><path d="m218.728 68.6003v-19.7149c0-26.9553-21.931-48.8854-48.886-48.8854h-19.715c-17.004 0-32.002 8.73266-40.763 21.9437-8.761-13.21104-23.759-21.9437-40.7638-21.9437h-19.7148c-26.9554 0-48.8854 21.9301-48.8854 48.8854v19.7149c0 17.0048 8.73263 32.0027 21.9441 40.7637-13.21147 8.76-21.9441 23.758-21.9441 40.763v19.715c0 26.956 21.9301 48.885 48.8854 48.885h19.7148c17.0048 0 32.0028-8.732 40.7638-21.943 8.761 13.211 23.759 21.943 40.763 21.943h19.715c26.955 0 48.886-21.929 48.886-48.885v-19.715c0-17.005-8.733-32.003-21.945-40.763 13.212-8.761 21.945-23.7589 21.945-40.7637zm-16.244 0c0 17.9985-14.643 32.6417-32.642 32.6417h-19.715c-15.339 0-28.233-10.6376-31.711-24.9211h-18.105c-2.8745 11.8068-12.1855 21.1154-23.9907 23.9911v18.104c11.8068 2.875 21.1154 12.186 23.9917 23.991h18.104c3.478-14.284 16.372-24.922 31.711-24.922h19.715c17.999 0 32.642 14.644 32.642 32.643v19.714c0 17.999-14.643 32.642-32.642 32.642h-19.715c-15.338 0-28.233-10.638-31.711-24.921h-18.105c-3.4781 14.283-16.3721 24.921-31.7109 24.921h-19.7148c-17.9984 0-32.6417-14.643-32.6417-32.642v-19.714c0-15.339 10.6376-28.233 24.9208-31.712v-18.104c-14.2831-3.4792-24.9208-16.3733-24.9208-31.7116v-19.7149c0-17.9988 14.6433-32.6421 32.6417-32.6421h19.7148c15.3388 0 28.2329 10.6377 31.7109 24.9216h18.105c3.478-14.2839 16.373-24.9216 31.711-24.9216h19.715c17.999 0 32.642 14.6433 32.642 32.6421z"/></g></svg>